<svg xmlns="http://www.w3.org/2000/svg" xmlns:xlink="http://www.w3.org/1999/xlink" id="Layer_1" x="0px" y="0px" viewBox="0 0 511 511" style="enable-background:new 0 0 511 511;" xml:space="preserve"><style type="text/css">	.st0{fill:#CD9933;}</style><path class="st0" d="M347.3,270.5c-8.3,0-15,6.7-15,15c0,8.3,6.7,15,15,15c8.3,0,15-6.7,15-15C362.3,277.2,355.6,270.5,347.3,270.5z "></path><path class="st0" d="M347.3,195.6c-49.5,0-89.8,40.3-89.8,89.8s40.3,89.8,89.8,89.8s89.8-40.3,89.8-89.8S396.8,195.6,347.3,195.6z  M347.3,330.4c-24.8,0-44.9-20.1-44.9-44.9c0-24.8,20.1-44.9,44.9-44.9c24.8,0,44.9,20.1,44.9,44.9 C392.2,310.2,372.1,330.4,347.3,330.4z"></path><path class="st0" d="M272.5,378.2V496c0,6.1,3.6,11.5,9.2,13.8c5.6,2.3,12,1.1,16.3-3.2l49.3-49.3l49.3,49.3 c2.9,2.9,6.7,4.4,10.6,4.4c1.9,0,3.9-0.4,5.7-1.1c5.6-2.3,9.2-7.8,9.2-13.8V378.2c-20.6,16.6-46.4,27-74.8,27 C318.9,405.2,293,394.8,272.5,378.2z"></path><path class="st0" d="M497,0H16C7.7,0,1,6.7,1,15v330.4c0,8.3,6.7,15,15,15h238.6c-16.6-20.6-27-46.4-27-74.9 c0-66,53.7-119.8,119.8-119.8c66,0,119.8,53.7,119.8,119.8c0,28.5-10.4,54.3-27,74.9h57c8.3,0,15-6.7,15-15V15 C512,6.7,505.3,0,497,0z M166.7,60.9h180.6c8.3,0,15,6.7,15,15c0,8.3-6.7,15-15,15H166.7c-8.3,0-15-6.7-15-15 C151.7,67.6,158.4,60.9,166.7,60.9z M197.6,270.5H75.9c-8.3,0-15-6.7-15-15c0-8.3,6.7-15,15-15h121.8c8.3,0,15,6.7,15,15 C212.6,263.8,205.9,270.5,197.6,270.5z M227.6,210.6H75.9c-8.3,0-15-6.7-15-15c0-8.3,6.7-15,15-15h151.7c8.3,0,15,6.7,15,15 C242.5,203.9,235.8,210.6,227.6,210.6z M437.1,150.7c-131.2,0-233.9,0-361.3,0c-8.3,0-15-6.7-15-15c0-8.3,6.7-15,15-15h361.3 c8.3,0,15,6.7,15,15C452.1,144,445.4,150.7,437.1,150.7z"></path></svg>