<svg xmlns="http://www.w3.org/2000/svg" xmlns:xlink="http://www.w3.org/1999/xlink" id="Layer_1" x="0px" y="0px" viewBox="0 0 48 48" style="enable-background:new 0 0 48 48;" xml:space="preserve"><style type="text/css">	.st0{fill:#CD9933;}</style><g>	<path class="st0" d="M7,42.4L40.3,9.1l3.1,3.1L10.1,45.5L7,42.4z"></path>	<path class="st0" d="M46.7,8.9c1-1,1-2.7,0-3.8l-3.8-3.8c-1-1-2.7-1-3.8,0l-1.9,1.9l7.6,7.6L46.7,8.9z"></path>	<path class="st0" d="M2.5,37.9L35.8,4.6l3.1,3.1L5.6,41L2.5,37.9z"></path>	<path class="st0" d="M0.5,47.5l7.6-1.1l-6.5-6.5L0.5,47.5z"></path>	<path class="st0" d="M34.4,25.1l-9.3,9.3l4,4l5.4-5.3l1.4,1.4l-5.4,5.3l2.8,2.8l3.4-3.4l1.4,1.4L34.8,44l3,3c0.6,0.6,1.6,0.6,2.2,0  l7-7.1c0.6-0.6,0.6-1.6,0-2.2L34.4,25.1z"></path>	<path class="st0" d="M4,13.2l5.4-5.3l1.4,1.4l-5.3,5.3l2.8,2.8l3.4-3.4l1.4,1.4l-3.4,3.4l4,4l9.3-9.3L10.3,1C9.7,0.4,8.7,0.4,8.1,1  L1,8.1c-0.6,0.6-0.6,1.6,0,2.2L4,13.2z"></path></g></svg>