<svg xmlns="http://www.w3.org/2000/svg" xmlns:xlink="http://www.w3.org/1999/xlink" id="Layer_1" x="0px" y="0px" viewBox="0 0 441.2 300" style="enable-background:new 0 0 441.2 300;" xml:space="preserve"><style type="text/css">	.st0{fill-rule:evenodd;clip-rule:evenodd;fill:#CD9933;}	.st1{fill:#CD9933;}</style><g id="Group_21622">	<path id="Path_26112" class="st0" d="M221,66.7c4.5,0.4,8.6,2.6,11.5,6.1l89.6,89.6c14.5,14.6,6.1,26.1-13,24.5H221l52.9,54.4  h112.5c34.5,1.5,62-30.6,27.5-63.6L257,21.5C243.9,8.4,232.4,0,221,0s-23,8.4-36,21.5L28.1,177.7c-34.5,33-6.9,65,27.5,63.6h112.5  l52.8-54.4h-87.8c-19.2,1.6-27.6-10-13-24.5l89.6-89.6c2.9-3.5,7-5.7,11.5-6.1"></path>	<path id="Path_26113" class="st0" d="M220.4,119c-17.9,0.1-32.4,14.6-32.3,32.6c0.1,17.9,14.6,32.4,32.6,32.3  c17.9-0.1,32.4-14.6,32.3-32.6c-0.1-17.8-14.5-32.2-32.3-32.3"></path>	<path id="Path_26114" class="st0" d="M220.6,300h164.6c26.9-0.8,33.8-7.6,56-51.3c-30.6,29.1-37.5,30.6-56,30.6H55.9  c-18.3,0-25-1.5-55.9-30.6c22.2,43.6,29.1,50.5,55.9,51.3L220.6,300z"></path>	<path id="Path_26115" class="st1" d="M363.1,267.6h5v3.5h-5V267.6z M363.1,257.6h5v3.5h-5V257.6z M331.9,265c0-5.6,8.5-5,8.5-5  l1,2.4c-0.9,0-5.2-0.3-5.5,2.7c0.1,1.6,1.5,2.9,3.1,2.8h0.1c1.5,0.1,3-0.5,4-1.6v-8.5h-13.9v-2.4H360v2.5h-12.6v3.6  c1.2-1,2.8-1.4,4.3-1.4c3.5,0,6.6,2.2,6.6,5c0,3.5-5,6.6-5,6.6l-3.2-1.6c0,0,3.9-2.3,3.9-5c0-1.5-1.3-2.6-2.7-2.6h-0.1  c-1.5,0.2-2.9,1-3.9,2.2v8.9h-4.2v-4.3C338.5,271.5,331.9,269.5,331.9,265L331.9,265z M328.7,247.6v1.9c-0.8-0.3-1.6-0.4-2.4-0.3  c-4.3,0-3.9,5.4-0.4,6.1h-2.8c-0.9-0.4-3.1-2.4-3.1-4.2C320.1,247.8,325.1,246,328.7,247.6L328.7,247.6z M318.1,255.3h10.5v2.5  h-2.5v15.7h-4.3v-15.8h-3.6V255.3z M310.1,261.1c1.1,0.1,2.3-0.3,3-1.1c0.2-2.4-5.9-3.3-5.9-0.5C307.4,260.4,308.7,261,310.1,261.1  L310.1,261.1z M299.8,255.3h18.3v2.5h-2.2c3.9,3.9,0.3,9.7-6.1,10c0,0,1.5,1,2.6,1.6l3.5,2l-2.5,2.2c-4-1.9-7.8-4.3-11.1-7.2l2.7-2  l1.6,1c0.6,0.2,1.3,0.2,1.9,0c3.8-0.6,4.4-2.2,4.5-3c-4.4,2.2-11.4-1-8.8-5h-4.3L299.8,255.3z M276,255.3h23.9v2.5h-4.5v5h-10  c-1.2,0-2.2,0.9-2.2,2.2v0.1c0,3.3,6.2,4.5,7.4,3.9c0-1.7,1.4-3.1,3.1-3.1c0,0,0,0,0,0h0.2c3.2,0,3.8,3.8,1,4.5  c0.3,0.7,0.7,1.3,1.2,1.9c0.6,0.9,1.9,2.2,1.9,2.2h-4.7c0,0-0.7-1-1.1-1.6c-0.2-0.5-0.5-0.9-0.8-1.4c0,0-12.8,0.5-12.7-6.6  c0-2.2,2.8-4.1,5.9-4.1h6.5V258h-15v-2.4L276,255.3z M268.7,266.2v2.1l-10.5,5l-2.4-2.4L268.7,266.2z M264.4,268.4  c-5.6,0-7.5-3.9-7.5-5v-5.6h-3.1v-2.4h21.7v2.5h-2.5v15.7h-4.2v-6.1C267.5,268.1,266,268.4,264.4,268.4L264.4,268.4z M268.8,257.8  h-7.5v5.8c0,1.3,0.9,2.5,3.4,2.6c1.6,0,3.1-0.7,4.2-1.9L268.8,257.8z M243.4,255.3h10.4v2.4h-2.5v15.8h-4.3v-15.8h-3.6L243.4,255.3  L243.4,255.3z M234.5,260v2.1c-1.1,0-5.8-0.4-5.8-3.6c0-2.2,2.8-3.6,6-3.6c4.1,0,7.6,2.6,7.6,5.6s-4,5.7-7.9,5.6  c1.2,1.4,3,2.1,4.8,1.8c3.1-0.1,6.1-1.5,8.2-3.9v4c-6.6,4.2-17.4,2.1-19.3-4.6c1.3,0.3,2.7,0.5,4,0.5c2.7,0,5.9-1,5.9-3.6  c0.1-1.6-1.2-2.9-2.8-3c-0.2,0-0.4,0-0.6,0C232,257.3,231.9,260,234.5,260L234.5,260z M216.8,268.4c-5.6,0-7.4-3.9-7.4-5v-5.6h-3.1  v-2.4h21.9v2.5h-2.5v15.7h-4.3v-6.1C219.9,268.1,218.4,268.5,216.8,268.4L216.8,268.4z M221.1,257.8h-7.5v5.8c0,1.3,1,2.5,3.4,2.6  c1.6,0,3.1-0.7,4.2-1.9L221.1,257.8z M179.7,267.8h5v3.5h-5V267.8z M179.7,257.8h5v3.5h-5V257.8z M148.4,265c0-5.6,8.6-5,8.6-5  l0.9,2.4c-0.9,0-5-0.3-5.4,2.7c0.1,1.6,1.5,2.9,3.1,2.8h0.1c1.5,0.1,3-0.5,4-1.6v-8.5h-13.9v-2.4h30.7v2.5h-12.6v3.6  c1.2-0.9,2.7-1.4,4.2-1.4c3.6,0,6.6,2.2,6.6,5c0,3.5-5,6.6-5,6.6l-3.2-1.6c0,0,3.9-2.3,3.9-5c0-1.5-1.3-2.6-2.7-2.6c0,0,0,0,0,0  h-0.1c-1.5,0.2-2.9,1-3.9,2.2v8.9h-4.2v-4.3C155,271.5,148.4,269.5,148.4,265z M122,255.4h23.8v2.5h-2.4v15.7H139v-9.4h-7.6v2.5  c0,0.6-0.4,1-0.9,1.1c0,0-0.1,0-0.1,0c-0.1,0-0.1,0-0.2,0c-2.4-1-4.4-2.8-5.7-5c0-1.2,1.6-1.2,1.8-1.2H139v-3.9h-17.1L122,255.4z   M111.4,255.4h10.4v2.5h-2.5v15.7H115v-15.8h-3.6L111.4,255.4z M104.7,257.8h-7.2v5.4h7.2V257.8z M87.6,255.4h23.8v2.5H109v15.7  h-4.3v-8h-7.2v2.1c0,0.7-0.6,1.2-1.3,1.2c0,0,0,0,0,0h-0.1c-2.5-1.1-4.6-2.8-6.1-5c0-0.8,1.6-0.9,1.7-0.9h1.4v-5.1h-5.5V255.4z"></path></g></svg>