<svg xmlns="http://www.w3.org/2000/svg" xmlns:xlink="http://www.w3.org/1999/xlink" id="Capa_1" x="0px" y="0px" viewBox="0 0 512 512" style="enable-background:new 0 0 512 512;" xml:space="preserve"><style type="text/css">	.st0{fill:#CD9933;}</style><g>	<g>		<g>			<g>				<path class="st0" d="M265.1,205.7c0,12.6,10.2,22.9,22.9,22.9s22.9-10.2,22.9-22.9s-10.2-22.9-22.9-22.9     C275.4,182.9,265.2,193.1,265.1,205.7z"></path>				<path class="st0" d="M320,173.7c0,10.1,8.2,18.3,18.3,18.3c10.1,0,18.3-8.2,18.3-18.3s-8.2-18.3-18.3-18.3S320,163.6,320,173.7z     "></path>				<path class="st0" d="M127.9,110.2c1.5-0.3,3.1-0.4,4.6-0.5c16.4,0.1,30.1,12.5,31.7,28.8c3.1-0.9,6.3-1.4,9.5-1.4     c17.7,0,32.8,12.7,35.9,30.2c4.6-1.8,9.4-2.7,14.4-2.7c12.5,0,24.3,5.8,32,15.6c10.9-14.1,29.8-19.3,46.4-12.9     c3.1-17.4,18.2-30.1,35.9-30.2c3.2,0,6.4,0.5,9.5,1.4c1.6-16.3,15.3-28.8,31.7-28.8c1.5,0,3.1,0.2,4.6,0.5c0-0.2,0-0.3,0-0.5     c0-4.5,1.2-9,3.4-13c-11.3-12-21.4-25.2-30.1-39.3l-0.4-0.6v0c-4.9-7.9-8.7-15-11.6-20.7c-5.1,3.4-10.6,6.2-16.4,8.2     c-0.6,0.3-1.3,0.5-2,0.7c-23,6.9-47,10.2-71,9.8c-24,0.4-48-2.9-71-9.8c-0.7-0.2-1.4-0.4-2-0.7c-5.8-2-11.3-4.7-16.4-8.2     C163.8,42,160,49,155,56.9v0l-0.4,0.6c-8.7,14.1-18.8,27.2-30.1,39.3c2.2,4,3.4,8.4,3.4,13C128,109.9,128,110,127.9,110.2z"></path>				<path class="st0" d="M411.4,118.9c5,0,9.1-4.1,9.1-9.1c0-5-4.1-9.1-9.1-9.1c-5,0-9.1,4.1-9.1,9.1S406.4,118.9,411.4,118.9z"></path>				<path class="st0" d="M365.7,141.7c0,7.6,6.1,13.7,13.7,13.7c7.6,0,13.7-6.1,13.7-13.7S387,128,379.4,128     S365.7,134.1,365.7,141.7z"></path>				<path class="st0" d="M256,36.6c53,0,80.4-13.1,82.3-18.3C336.4,13.1,309,0,256,0c-53.5,0-80.9,13.3-82.3,18.4     C175.1,23.2,202.5,36.6,256,36.6z"></path>				<path class="st0" d="M155.4,173.7c0,10.1,8.2,18.3,18.3,18.3s18.3-8.2,18.3-18.3s-8.2-18.3-18.3-18.3     C163.6,155.4,155.4,163.6,155.4,173.7z"></path>				<path class="st0" d="M231.5,431.1c15.9,5.5,33.1,5.5,49,0c165.8-58.2,191-240,194.4-278.2c-16.4-5.2-32-12.6-46.4-22     c-4.8,3.9-10.8,6.1-17.1,6.1c-0.2,0-0.3,0-0.5,0c0.3,1.5,0.4,3.1,0.5,4.6c0,17.7-14.3,32-32,32c-1.5,0-3.1-0.2-4.6-0.5     c0,0.2,0,0.3,0,0.5c0,20.2-16.4,36.6-36.6,36.6c-3.2,0-6.4-0.5-9.5-1.4c-1.2,16.8-12.6,31.2-28.7,36.2     c-16.1,5-33.7-0.5-44.1-13.8c-10.4,13.3-27.9,18.8-44.1,13.8c-16.1-5-27.6-19.3-28.7-36.2c-3.1,0.9-6.3,1.4-9.5,1.4     c-20.2,0-36.6-16.4-36.6-36.6c0-0.2,0-0.3,0-0.5c-1.5,0.3-3.1,0.4-4.6,0.5c-17.7,0-32-14.3-32-32c0-1.5,0.2-3.1,0.5-4.6     c-0.2,0-0.3,0-0.5,0c-6.2,0-12.2-2.2-17.1-6.1c-14.4,9.4-30,16.7-46.4,22C40.6,191.1,65.9,373,231.5,431.1z"></path>				<path class="st0" d="M325.7,491.2c1.3,4.9-1.5,9.9-6.3,11.2c-4.9,1.4-9.9-1.5-11.3-6.3c-5.3-18.8-4.6-38.8,1.8-57.3     c-7.5,3.4-15.2,6.6-23.4,9.5c-19.8,6.9-41.3,6.9-61.1,0c-8.1-2.9-15.9-6.1-23.4-9.5c6.5,18.5,7.1,38.4,1.8,57.3     c-0.9,3.2-3.4,5.6-6.5,6.4s-6.5-0.1-8.8-2.5s-3.1-5.7-2.2-8.9c1.2-4.1,2-8.4,2.4-12.6c-43.7,4.2-62.6,11.4-68.4,15.2     c10.3,7,56.1,18.2,135.7,18.2s125.4-11.2,135.7-18.2c-5.8-3.8-24.7-10.9-68.4-15.2C323.7,482.9,324.5,487.1,325.7,491.2z"></path>				<path class="st0" d="M132.6,155.4c7.6,0,13.7-6.1,13.7-13.7s-6.1-13.7-13.7-13.7c-7.6,0-13.7,6.1-13.7,13.7     C118.9,149.3,125,155.4,132.6,155.4z"></path>				<path class="st0" d="M201.1,205.7c0,12.6,10.2,22.9,22.9,22.9s22.9-10.2,22.9-22.9s-10.2-22.9-22.9-22.9     C211.4,182.9,201.2,193.1,201.1,205.7z"></path>				<path class="st0" d="M100.6,118.9c5,0,9.1-4.1,9.1-9.1s-4.1-9.1-9.1-9.1c-5,0-9.1,4.1-9.1,9.1     C91.4,114.8,95.5,118.9,100.6,118.9z"></path>			</g>		</g>	</g></g></svg>