<svg xmlns="http://www.w3.org/2000/svg" xmlns:xlink="http://www.w3.org/1999/xlink" id="Layer_1" x="0px" y="0px" viewBox="0 0 512 512" style="enable-background:new 0 0 512 512;" xml:space="preserve"><style type="text/css">	.st0{fill:#CD9933;}</style><path class="st0" d="M448,256c0,58.9-27.8,115.5-74.2,151.7C326.6,444.3,263.6,457,206,441.4c-69-18.6-123.3-76-137.9-145.9 C53.2,224.2,80.8,149,138.2,104.3c57.7-44.8,138.2-52.8,203.5-20.2C406.2,116.4,448,183.9,448,256L448,256z M371.4,148.8 c0.9-8.5-10.9-12.2-15-4.7L305,237.5l-41.8-92.8c-2.8-6.2-11.8-6.2-14.6,0L207,237.5l-51.4-93.4c-4.1-7.4-15.8-3.8-15,4.7 l18.6,186.5c0.9,9.1,8.6,16,17.7,16H335c9.1,0,16.8-6.9,17.7-16L371.4,148.8z M343.9,390.3c10.3,0,10.3-16,0-16H168.1 c-10.3,0-10.3,16,0,16H343.9z"></path><path class="st0" d="M351.6,186.2l-14.8,147.5c-0.1,0.9-0.8,1.6-1.8,1.6H177c-1,0-1.7-0.7-1.8-1.6l-14.8-147.5l40.2,73.1 c3.1,5.7,11.7,5.3,14.3-0.6l41-91.2l41,91.2c2.6,5.9,11.2,6.2,14.3,0.6L351.6,186.2z"></path></svg>