<svg xmlns="http://www.w3.org/2000/svg" xmlns:xlink="http://www.w3.org/1999/xlink" id="Layer_1" x="0px" y="0px" viewBox="0 0 64 64" style="enable-background:new 0 0 64 64;" xml:space="preserve"><style type="text/css">	.st0{fill-rule:evenodd;clip-rule:evenodd;fill:#CD9933;}</style><g transform="translate(-1848 -248)">	<path class="st0" d="M1908,308v-20.5l-3.7,6.5c-4.8,8.4-13.9,14-24.3,14c-15.4,0-28-12.5-28-28v-2h-4v2c0,17.7,14.3,32,32,32  c9.6,0,18.1-4.2,24-10.8v4.8v2H1908z M1880,255c-13.8,0-25,11.2-25,25s11.2,25,25,25s25-11.2,25-25S1893.8,255,1880,255z M1890,266  h-20v4h6c2.6,0,4.8,1.7,5.7,4H1870v4h11.7c-0.8,2.3-3.1,4-5.7,4h-6v3.9l12.7,11.6l2.7-2.9l-9.3-8.5c4.8,0,8.8-3.5,9.8-8h4.2v-4  h-4.2c-0.3-1.5-0.9-2.8-1.8-4h6L1890,266z M1852,252v20.5l3.7-6.5c4.8-8.4,13.9-14,24.3-14c15.4,0,28,12.5,28,28v2h4v-2  c0-17.7-14.3-32-32-32c-9.6,0-18.1,4.2-24,10.8V254v-2L1852,252z"></path></g></svg>