<svg xmlns="http://www.w3.org/2000/svg" xmlns:xlink="http://www.w3.org/1999/xlink" id="Layer_3" x="0px" y="0px" viewBox="0 0 512 512" style="enable-background:new 0 0 512 512;" xml:space="preserve"><style type="text/css">	.st0{fill:#CD9933;}</style><path class="st0" d="M280,290.8V256l-24,16l-24-16v34.8c-55.9,13.3-90.4,69.3-77.2,125.2s69.3,90.4,125.2,77.2s90.4-69.3,77.2-125.2 C348.1,329.7,318.3,299.9,280,290.8z M256,464c-39.8,0-72-32.2-72-72s32.2-72,72-72s72,32.2,72,72S295.8,464,256,464z"></path><circle class="st0" cx="408" cy="216" r="40"></circle><path class="st0" d="M384,272h-16v8h-8v16h8v8h16v-8h8v-16h-8V272z"></path><path class="st0" d="M152,216v-16h-8v-8h-16v8h-8v16h8v8h16v-8H152z"></path><circle class="st0" cx="104" cy="296" r="40"></circle><path class="st0" d="M190.3,185.6l65.7,65.7l65.7-65.7l-0.2-0.5L360,168v-64l-72.3-36.1l-0.1,0.4c-0.8-6.5-3.5-12.5-7.8-17.4h0.2V8 h-48v42.7h0.3c-4.4,4.9-7.1,11-7.9,17.5l-0.1-0.4L152,104v64l38.5,17.1L190.3,185.6z M252.9,176l3.1-6.1l3.1,6.1H252.9z M261.4,192 l-5.4,18.9l-5.4-18.9H261.4z M239.8,212.5L219.3,192H234L239.8,212.5z M278,192h14.7l-20.5,20.5L278,192z M288,176l6.6-8.8l4.4,8.8 H288z M273.4,168.8l-4.4-8.8H280L273.4,168.8z M238.6,168.8L232,160h11.1L238.6,168.8z M217.4,167.2l6.6,8.8h-11.1L217.4,167.2z  M184,152v-32l48.1-26.7L232,93c11.4,13.2,31.4,14.7,44.6,3.3c1.2-1,2.4-2.2,3.4-3.4l-0.1,0.4L328,120v32l-18.4,9.2l-8.7-17.2h-89.9 l-8.6,17.2L184,152z"></path></svg>