<svg xmlns="http://www.w3.org/2000/svg" xmlns:xlink="http://www.w3.org/1999/xlink" id="Layer_1" x="0px" y="0px" viewBox="0 0 510 510" style="enable-background:new 0 0 510 510;" xml:space="preserve"><style type="text/css">	.st0{fill-rule:evenodd;clip-rule:evenodd;fill:#CD9933;}</style><g id="Artboard471">	<path class="st0" d="M400.9,140.3c-26.1,0-47.4-21.3-47.4-47.4s21.3-47.4,47.4-47.4c26.1,0,47.4,21.3,47.4,47.4  S427,140.3,400.9,140.3z M109.1,142.4c-26.1,0-47.4-21.3-47.4-47.4c0-26.1,21.3-47.4,47.4-47.4c26.1,0,47.4,21.3,47.4,47.4  C156.6,121.1,135.3,142.4,109.1,142.4z M255,107.4c-26.1,0-47.4-21.3-47.4-47.4s21.3-47.4,47.4-47.4c26.1,0,47.4,21.3,47.4,47.4  S281.1,107.4,255,107.4z M402.7,214.4l15.2,40c0.5,1.2,1.5,2,2.8,2l42.7,2.1c2.9,0.1,4.1,3.8,1.8,5.6l-33.3,26.8  c-1,0.8-1.4,2-1.1,3.3l11.2,41.3c0.8,2.8-2.3,5.1-4.8,3.5l-35.8-23.4c-1.1-0.7-2.4-0.7-3.5,0l-35.8,23.4c-2.4,1.6-5.5-0.7-4.8-3.5  l11.2-41.3c0.3-1.2-0.1-2.5-1.1-3.3l-33.3-26.8c-2.3-1.8-1.1-5.5,1.8-5.6l42.7-2.1c1.3-0.1,2.3-0.8,2.8-2l15.2-40  C397.8,211.7,401.7,211.7,402.7,214.4L402.7,214.4z M258,180.7l15.2,40c0.5,1.2,1.5,2,2.8,2l42.7,2.1c2.9,0.1,4.1,3.8,1.8,5.6  l-33.3,26.8c-1,0.8-1.4,2-1.1,3.3l11.2,41.3c0.8,2.8-2.3,5.1-4.8,3.5l-35.8-23.4c-1.1-0.7-2.4-0.7-3.5,0l-35.8,23.4  c-2.4,1.6-5.5-0.7-4.8-3.5l11.2-41.3c0.3-1.2-0.1-2.5-1.1-3.3l-33.3-26.8c-2.3-1.8-1.1-5.5,1.8-5.6l42.7-2.1c1.3-0.1,2.3-0.8,2.8-2  l15.2-40C253.1,178,256.9,178,258,180.7L258,180.7z M329.3,212h18.9c4.5,0,8.9-1.9,11.9-5.3c3-3.4,4.5-7.9,4-12.4  c-1.4-12.9-5-25.1-10.4-36.3c13.9-8.1,30-12.7,47.2-12.7c48.4,0,88.2,36.6,93.3,83.7h-68.8l-7.7-20.3c-6.2-16.4-29.6-16.4-35.8,0  c0,0-3.9,10.2-7.7,20.3h-36.4C338,222.4,334.9,215.8,329.3,212z M280.9,196l-8-21c-6.2-16.4-29.6-16.4-35.8,0c0,0-4.1,10.7-8,21  h-67.4c5.1-47.1,44.9-83.7,93.3-83.7c48.4,0,88.2,36.6,93.3,83.7H280.9z M113.7,214.4l15.2,40c0.5,1.2,1.5,2,2.8,2l42.7,2.1  c2.9,0.1,4.1,3.8,1.8,5.6l-33.3,26.8c-1,0.8-1.4,2-1.1,3.3l11.2,41.3c0.8,2.8-2.3,5.1-4.8,3.5l-35.8-23.4c-1.1-0.7-2.4-0.7-3.5,0  l-35.8,23.4c-2.4,1.6-5.5-0.7-4.8-3.5l11.2-41.3c0.3-1.2-0.1-2.5-1.1-3.3l-33.3-26.8c-2.3-1.8-1.1-5.5,1.8-5.6l42.7-2.1  c1.3-0.1,2.3-0.8,2.8-2l15.2-40C108.8,211.7,112.7,211.7,113.7,214.4L113.7,214.4z M84.3,231.1H15.9c5.1-47.1,44.9-83.7,93.3-83.7  c16.9,0,32.7,4.5,46.4,12.3c-5,10.7-8.4,22.4-9.7,34.7c-0.5,4.5,1,9,4,12.4c3,3.4,7.4,5.3,11.9,5.3h18.9  c-6.2,4.2-9.3,11.8-8.1,19.1h-35.4l-8.5-22.4c-6.2-16.4-29.6-16.4-35.8,0C92.8,208.7,88.4,220.4,84.3,231.1L84.3,231.1z   M345.8,348.5c5.8,6.8,16.2,9.6,25.1,3.8c0,0,0,0,0.1,0l28.7-18.8l20.5,13.4c-4.3,13.9-10.3,27.1-17.9,39.5l14.5,32.7l-38.6,38.6  l-32.7-14.5c-15.5,9.6-32.6,16.6-50.4,20.9l-12.9,33.4h-54.5l-12.9-33.4c-17.9-4.2-34.8-11.3-50.4-20.9l-32.7,14.5l-38.6-38.6  l14.6-32.7c-7.6-12.3-13.6-25.5-17.9-39.3l20.9-13.7l28.8,18.8c0,0,0,0,0.1,0c8.8,5.7,19,3.1,24.9-3.5c21.6,26,54.1,42.5,90.5,42.5  C291.5,391.3,324.2,374.7,345.8,348.5z"></path></g></svg>