<svg xmlns="http://www.w3.org/2000/svg" xmlns:xlink="http://www.w3.org/1999/xlink" id="Layer_1" x="0px" y="0px" viewBox="0 0 512 512" style="enable-background:new 0 0 512 512;" xml:space="preserve"><style type="text/css">	.st0{fill:#CD9933;}</style><g id="Save_Blood">	<path class="st0" d="M504.1,264L430.4,71.1c-7.1-18.6-27.9-27.9-46.5-20.7c-17.3,6.6-26.7,25.3-21.8,43.1l40.5,146.9  c11.5,1.4,22.1,6.7,30.2,14.9c20.4,20.4,20.4,53.5,0,73.9L377,385c-3,3.1-8,3.2-11.1,0.2c-0.1-0.1-0.1-0.1-0.2-0.2  c-3.1-3.1-3.1-8.2,0-11.3c0,0,0,0,0,0l55.8-55.8c14.1-14.2,14-37.2-0.2-51.3c-14.1-14-36.9-14-51.1,0l-55.9,55.9  c-16.9,16.7-26.3,39.5-26.2,63.3V440h160c-0.3-8,2.3-15.8,7.4-22l28.8-34.6C511.9,350.1,519.5,304.5,504.1,264L504.1,264z"></path>	<path class="st0" d="M272,456h192c4.4,0,8,3.6,8,8v40c0,4.4-3.6,8-8,8H272c-4.4,0-8-3.6-8-8v-40C264,459.6,267.6,456,272,456z"></path>	<path class="st0" d="M64,440h160v-54.2c0.1-23.8-9.4-46.6-26.2-63.3l-55.9-55.9c-14.2-14.1-37.2-14-51.3,0.2  c-14,14.1-14,36.9,0,51.1l55.8,55.8c3.1,3.1,3.1,8.2,0,11.3c0,0,0,0,0,0c-3,3.1-8,3.2-11.1,0.2c-0.1-0.1-0.1-0.1-0.2-0.2  l-55.8-55.8c-20.4-20.4-20.4-53.5,0-73.9c8.1-8.2,18.8-13.4,30.2-14.9l40.5-146.9c5.3-19.2-6-39-25.2-44.2  c-17.9-4.9-36.5,4.5-43.1,21.8L7.9,264c-15.4,40.5-7.8,86.1,19.8,119.4L56.6,418C61.7,424.2,64.3,432,64,440L64,440z"></path>	<path class="st0" d="M48,456h192c4.4,0,8,3.6,8,8v40c0,4.4-3.6,8-8,8H48c-4.4,0-8-3.6-8-8v-40C40,459.6,43.6,456,48,456z"></path>	<path class="st0" d="M360,168c0-66.5-94.3-161.6-98.3-165.7c-3.2-3-8.1-3-11.3,0c-4,4-98.3,99.1-98.3,165.7  c0,57.4,46.6,104,104,104S360,225.4,360,168z M256,248c-44.2-0.1-79.9-35.8-80-80c0-4.4,3.6-8,8-8s8,3.6,8,8c0,35.3,28.7,64,64,64  c4.4,0,8,3.6,8,8S260.4,248,256,248z"></path></g></svg>